<?xml version="1.0" encoding="UTF-8" standalone="no"?>
<!-- Created with Inkscape (http://www.inkscape.org/) -->

<svg
   width="512"
   height="512"
   viewBox="0 0 136.09448 136"
   id="svg12101"
   version="1.1"
   inkscape:version="1.2.2 (b0a8486541, 2022-12-01)"
   sodipodi:docname="admin-icon.svg"
   inkscape:export-filename="mod-icon.png"
   inkscape:export-xdpi="96"
   inkscape:export-ydpi="96"
   xmlns:inkscape="http://www.inkscape.org/namespaces/inkscape"
   xmlns:sodipodi="http://sodipodi.sourceforge.net/DTD/sodipodi-0.dtd"
   xmlns="http://www.w3.org/2000/svg"
   xmlns:svg="http://www.w3.org/2000/svg"
   xmlns:rdf="http://www.w3.org/1999/02/22-rdf-syntax-ns#"
   xmlns:cc="http://creativecommons.org/ns#"
   xmlns:dc="http://purl.org/dc/elements/1.1/">
  <defs
     id="defs12103">
    <inkscape:path-effect
       effect="copy_rotate"
       starting_point="0,0"
       origin="-803.05,-750"
       id="path-effect6576"
       is_visible="true"
       lpeversion="1.2"
       lpesatellites=""
       method="normal"
       num_copies="8"
       starting_angle="0"
       rotation_angle="45"
       gap="-0.01"
       copies_to_360="true"
       mirror_copies="false"
       split_items="false"
       link_styles="false" />
    <inkscape:path-effect
       effect="copy_rotate"
       starting_point="0,0"
       origin="100,100"
       id="path-effect6574"
       is_visible="true"
       lpeversion="1.2"
       lpesatellites=""
       method="normal"
       num_copies="6"
       starting_angle="0"
       rotation_angle="60"
       gap="0.13"
       copies_to_360="true"
       mirror_copies="false"
       split_items="false"
       link_styles="false" />
  </defs>
  <sodipodi:namedview
     id="base"
     pagecolor="#ffffff"
     bordercolor="#666666"
     borderopacity="1.0"
     inkscape:pageopacity="0.0"
     inkscape:pageshadow="2"
     inkscape:zoom="0.70710678"
     inkscape:cx="128.69343"
     inkscape:cy="75.660425"
     inkscape:document-units="px"
     inkscape:current-layer="layer1"
     showgrid="true"
     units="px"
     inkscape:window-width="1920"
     inkscape:window-height="999"
     inkscape:window-x="0"
     inkscape:window-y="0"
     inkscape:window-maximized="1"
     inkscape:snap-bbox="true"
     inkscape:bbox-nodes="true"
     inkscape:snap-bbox-edge-midpoints="true"
     inkscape:object-paths="true"
     inkscape:object-nodes="true"
     inkscape:snap-intersection-paths="true"
     inkscape:snap-smooth-nodes="true"
     inkscape:snap-midpoints="true"
     inkscape:showpageshadow="2"
     inkscape:pagecheckerboard="0"
     inkscape:deskcolor="#d1d1d1"
     showguides="true">
    <inkscape:grid
       type="xygrid"
       id="grid4163" />
    <sodipodi:guide
       position="67.78143,136"
       orientation="1,0"
       id="guide1288"
       inkscape:locked="false" />
    <sodipodi:guide
       position="143.53715,66.9375"
       orientation="0,-1"
       id="guide1336"
       inkscape:locked="false" />
  </sodipodi:namedview>
  <metadata
     id="metadata12106">
    <rdf:RDF>
      <cc:Work
         rdf:about="">
        <dc:format>image/svg+xml</dc:format>
        <dc:type
           rdf:resource="http://purl.org/dc/dcmitype/StillImage" />
        <dc:title />
      </cc:Work>
    </rdf:RDF>
  </metadata>
  <g
     inkscape:label="Ebene 1"
     inkscape:groupmode="layer"
     id="layer1"
     transform="translate(0,-916.36218)">
    <circle
       inkscape:export-ydpi="90"
       inkscape:export-xdpi="90"
       r="60.492508"
       cy="984.26959"
       cx="67.575562"
       id="circle4812-0"
       style="fill:#500000;fill-opacity:0;stroke:none;stroke-width:2.83226;stroke-miterlimit:4;stroke-dasharray:none;stroke-opacity:1" />
    <g
       id="g1312"
       transform="translate(871.10968,1731.7989)">
      <circle
         style="fill:#4c5263;fill-opacity:1;stroke:none;stroke-width:2.83226;stroke-miterlimit:4;stroke-dasharray:none;stroke-opacity:1"
         id="circle4804-0"
         cx="-803.32825"
         cy="-746.55646"
         r="60.421638"
         inkscape:export-xdpi="90"
         inkscape:export-ydpi="90" />
      <path
         style="color:#000000;font-style:normal;font-variant:normal;font-weight:normal;font-stretch:normal;font-size:medium;line-height:normal;font-family:sans-serif;text-indent:0;text-align:start;text-decoration:none;text-decoration-line:none;text-decoration-style:solid;text-decoration-color:#000000;letter-spacing:normal;word-spacing:normal;text-transform:none;writing-mode:lr-tb;direction:ltr;baseline-shift:baseline;text-anchor:start;white-space:normal;clip-rule:nonzero;display:inline;overflow:visible;visibility:visible;opacity:1;isolation:auto;mix-blend-mode:normal;color-interpolation:sRGB;color-interpolation-filters:linearRGB;solid-color:#000000;solid-opacity:1;fill:#ffffff;fill-opacity:1;fill-rule:evenodd;stroke:none;stroke-width:4.07664;stroke-linecap:butt;stroke-linejoin:miter;stroke-miterlimit:4;stroke-dasharray:none;stroke-dashoffset:0;stroke-opacity:1;color-rendering:auto;image-rendering:auto;shape-rendering:auto;text-rendering:auto;enable-background:accumulate"
         d="m -744.18816,-734.14093 c -8.82317,11.90294 -25.12141,18.26438 -44.53778,21.08546 -20.25754,2.94331 -43.74737,2.06878 -64.70676,0.27843 1.00387,1.49958 2.10572,2.95344 3.23972,4.3572 20.17667,1.59964 42.40642,2.25343 62.05341,-0.60112 16.3859,-2.38078 31.19231,-7.21108 41.35023,-16.1878 1.10838,-2.88616 2.01979,-6.08305 2.60118,-8.93217 z"
         id="path4808-8"
         inkscape:connector-curvature="0"
         sodipodi:nodetypes="csccscc" />
      <path
         style="fill:#5294e2;fill-opacity:1;stroke:none;stroke-width:2.83226;stroke-miterlimit:4;stroke-dasharray:none;stroke-opacity:1"
         d="m -788.1433,-709.02285 c -20.53179,2.89718 -41.44565,2.17889 -62.04968,0.60301 13.25907,16.90907 36.30323,25.43018 57.58935,21.32318 20.54349,-3.53111 38.5503,-18.57558 45.80396,-38.09428 -12.1994,8.65354 -26.61249,13.9057 -41.34363,16.16809 z"
         id="path4814-1"
         inkscape:connector-curvature="0"
         sodipodi:nodetypes="ccccc" />
    </g>
    <g
       id="g6683"
       transform="matrix(0.95160142,0,0,0.95160142,3.2791005,44.45816)">
      <circle
         style="font-variation-settings:'wght' 500;fill:none;stroke:#ffffff;stroke-width:5.31619;stroke-dasharray:none;stroke-opacity:1"
         id="path2123"
         cx="67.781433"
         cy="977.00317"
         r="25.335548" />
      <circle
         style="font-variation-settings:'wght' 500;fill:none;fill-opacity:1;stroke:#ffffff;stroke-width:4.46495;stroke-dasharray:none;stroke-opacity:1"
         id="path2123-3"
         cy="977.48279"
         cx="67.782928"
         r="7.0934739" />
      <g
         id="g3107"
         transform="translate(870.83293,1727.4414)"
         inkscape:transform-center-x="-0.012703138"
         inkscape:transform-center-y="-21.319153"
         inkscape:path-effect="#path-effect6576"
         class="UnoptimicedTransforms">
        <path
           style="font-variation-settings:'wght' 500;fill:#ffffff;fill-opacity:1;stroke-width:0.32555"
           id="rect2818"
           width="4.7845688"
           height="20.998949"
           x="-805.44379"
           y="-778.16608"
           ry="0"
           sodipodi:type="rect"
           d="m -805.44379,-778.16608 h 4.78457 v 20.99895 h -4.78457 z m -19.2153,9.94232 3.3832,-3.3832 14.8485,14.8485 -3.3832,3.3832 z m -6.55699,20.61755 v -4.78457 h 20.99895 v 4.78457 z m 9.94232,19.2153 -3.3832,-3.3832 14.8485,-14.8485 3.3832,3.3832 z m 20.61755,6.55699 h -4.78457 v -20.99895 h 4.78457 z m 19.2153,-9.94232 -3.3832,3.3832 -14.8485,-14.8485 3.3832,-3.3832 z m 6.55699,-20.61755 v 4.78457 h -20.99895 v -4.78457 z m -9.94232,-19.2153 3.3832,3.3832 -14.8485,14.8485 -3.3832,-3.3832 z" />
        <path
           style="font-variation-settings:'wght' 500;fill:#ffffff;fill-opacity:1;stroke-width:0.26581"
           d="m -805.44379,-777.63446 v -2.39229 c 0,0 0.99714,-3.16595 0.99714,-4.12024 0,-0.95429 -0.99714,-3.58823 -0.99714,-4.38566 0,-0.79743 0.53163,-2.6581 2.39229,-2.6581 1.86066,0 2.39228,1.86067 2.39228,2.6581 0,0.79743 -0.99414,3.43137 -0.99414,4.38566 0,0.95429 0.99414,4.12024 0.99414,4.12024 v 2.39229 z m -18.83939,9.78661 -1.6916,-1.6916 c 0,0 -1.53358,-2.94375 -2.20837,-3.61854 -0.67478,-0.67478 -3.24235,-1.83217 -3.80621,-2.39604 -0.56387,-0.56387 -1.50364,-2.25548 -0.18796,-3.57117 1.31569,-1.31568 3.00729,-0.3759 3.57116,0.18797 0.56387,0.56386 1.72338,3.1293 2.39817,3.80409 0.67478,0.67478 3.61641,2.21048 3.61641,2.21048 l 1.6916,1.69161 z m -6.40128,20.24164 h -2.39229 c 0,0 -3.16595,-0.99714 -4.12024,-0.99714 -0.95429,0 -3.58823,0.99714 -4.38566,0.99714 -0.79743,0 -2.6581,-0.53163 -2.6581,-2.39229 0,-1.86066 1.86067,-2.39228 2.6581,-2.39228 0.79743,0 3.43137,0.99414 4.38566,0.99414 0.95429,0 4.12024,-0.99414 4.12024,-0.99414 h 2.39229 z m 9.78661,18.83939 -1.6916,1.6916 c 0,0 -2.94375,1.53358 -3.61854,2.20837 -0.67478,0.67478 -1.83217,3.24235 -2.39604,3.80621 -0.56387,0.56387 -2.25548,1.50364 -3.57117,0.18796 -1.31568,-1.31569 -0.3759,-3.00729 0.18797,-3.57116 0.56386,-0.56387 3.1293,-1.72338 3.80409,-2.39817 0.67478,-0.67478 2.21048,-3.61641 2.21048,-3.61641 l 1.69161,-1.6916 z m 20.24164,6.40128 v 2.39229 c 0,0 -0.99714,3.16595 -0.99714,4.12024 0,0.95429 0.99714,3.58823 0.99714,4.38566 0,0.79743 -0.53163,2.6581 -2.39229,2.6581 -1.86066,0 -2.39228,-1.86067 -2.39228,-2.6581 0,-0.79743 0.99414,-3.43137 0.99414,-4.38566 0,-0.95429 -0.99414,-4.12024 -0.99414,-4.12024 v -2.39229 z m 18.83939,-9.78661 1.6916,1.6916 c 0,0 1.53358,2.94375 2.20837,3.61854 0.67478,0.67478 3.24235,1.83217 3.80621,2.39604 0.56387,0.56387 1.50364,2.25548 0.18796,3.57117 -1.31569,1.31568 -3.00729,0.3759 -3.57116,-0.18797 -0.56387,-0.56386 -1.72338,-3.1293 -2.39817,-3.80409 -0.67478,-0.67478 -3.61641,-2.21048 -3.61641,-2.21048 l -1.6916,-1.69161 z m 6.40128,-20.24164 h 2.39229 c 0,0 3.16595,0.99714 4.12024,0.99714 0.95429,0 3.58823,-0.99714 4.38566,-0.99714 0.79743,0 2.6581,0.53163 2.6581,2.39229 0,1.86066 -1.86067,2.39228 -2.6581,2.39228 -0.79743,0 -3.43137,-0.99414 -4.38566,-0.99414 -0.95429,0 -4.12024,0.99414 -4.12024,0.99414 h -2.39229 z m -9.78661,-18.83939 1.6916,-1.6916 c 0,0 2.94375,-1.53358 3.61854,-2.20837 0.67478,-0.67478 1.83217,-3.24235 2.39604,-3.80621 0.56387,-0.56387 2.25548,-1.50364 3.57117,-0.18796 1.31568,1.31569 0.3759,3.00729 -0.18797,3.57116 -0.56386,0.56387 -3.1293,1.72338 -3.80409,2.39817 -0.67478,0.67478 -2.21048,3.61641 -2.21048,3.61641 l -1.69161,1.6916 z"
           id="path2971"
           sodipodi:nodetypes="cczzzzzccc"
           inkscape:original-d="m -805.44379,-777.63446 v -2.39229 c 0,0 0.99714,-3.16595 0.99714,-4.12024 0,-0.95429 -0.99714,-3.58823 -0.99714,-4.38566 0,-0.79743 0.53163,-2.6581 2.39229,-2.6581 1.86066,0 2.39228,1.86067 2.39228,2.6581 0,0.79743 -0.99414,3.43137 -0.99414,4.38566 0,0.95429 0.99414,4.12024 0.99414,4.12024 v 2.39229 z" />
      </g>
    </g>
  </g>
</svg>
