<?xml version="1.0" encoding="UTF-8" standalone="no"?>
<!-- Created with Inkscape (http://www.inkscape.org/) -->

<svg
   width="512"
   height="512"
   viewBox="0 0 136.09448 136"
   id="svg12101"
   version="1.1"
   inkscape:version="1.3 (0e150ed6c4, 2023-07-21)"
   sodipodi:docname="Solus.svg"
   inkscape:export-filename="Solus.png"
   inkscape:export-xdpi="96"
   inkscape:export-ydpi="96"
   xmlns:inkscape="http://www.inkscape.org/namespaces/inkscape"
   xmlns:sodipodi="http://sodipodi.sourceforge.net/DTD/sodipodi-0.dtd"
   xmlns="http://www.w3.org/2000/svg"
   xmlns:svg="http://www.w3.org/2000/svg"
   xmlns:rdf="http://www.w3.org/1999/02/22-rdf-syntax-ns#"
   xmlns:cc="http://creativecommons.org/ns#"
   xmlns:dc="http://purl.org/dc/elements/1.1/">
  <defs
     id="defs12103" />
  <sodipodi:namedview
     id="base"
     pagecolor="#ffffff"
     bordercolor="#666666"
     borderopacity="1.0"
     inkscape:pageopacity="0.0"
     inkscape:pageshadow="2"
     inkscape:zoom="0.5"
     inkscape:cx="315"
     inkscape:cy="346"
     inkscape:document-units="px"
     inkscape:current-layer="layer1"
     showgrid="true"
     units="px"
     inkscape:window-width="1920"
     inkscape:window-height="999"
     inkscape:window-x="1050"
     inkscape:window-y="727"
     inkscape:window-maximized="1"
     inkscape:snap-bbox="true"
     inkscape:bbox-nodes="true"
     inkscape:snap-bbox-edge-midpoints="true"
     inkscape:object-paths="true"
     inkscape:object-nodes="true"
     inkscape:snap-intersection-paths="true"
     inkscape:snap-smooth-nodes="true"
     inkscape:snap-midpoints="true"
     inkscape:showpageshadow="2"
     inkscape:pagecheckerboard="0"
     inkscape:deskcolor="#d1d1d1">
    <inkscape:grid
       type="xygrid"
       id="grid4163"
       originx="0"
       originy="0"
       spacingy="1"
       spacingx="1"
       units="px"
       visible="true" />
  </sodipodi:namedview>
  <metadata
     id="metadata12106">
    <rdf:RDF>
      <cc:Work
         rdf:about="">
        <dc:format>image/svg+xml</dc:format>
        <dc:type
           rdf:resource="http://purl.org/dc/dcmitype/StillImage" />
        <dc:title />
      </cc:Work>
    </rdf:RDF>
  </metadata>
  <g
     inkscape:label="Ebene 1"
     inkscape:groupmode="layer"
     id="layer1"
     transform="translate(0,-916.36218)">
    <circle
       style="fill:#4c5263;fill-opacity:1;stroke:none;stroke-width:3;stroke-miterlimit:4;stroke-dasharray:none;stroke-opacity:1"
       id="circle4804-0"
       cx="66.047241"
       cy="986.33099"
       r="63.999992"
       inkscape:export-xdpi="90"
       inkscape:export-ydpi="90" />
    <path
       style="color:#000000;font-style:normal;font-variant:normal;font-weight:normal;font-stretch:normal;font-size:medium;line-height:normal;font-family:sans-serif;text-indent:0;text-align:start;text-decoration:none;text-decoration-line:none;text-decoration-style:solid;text-decoration-color:#000000;letter-spacing:normal;word-spacing:normal;text-transform:none;writing-mode:lr-tb;direction:ltr;baseline-shift:baseline;text-anchor:start;white-space:normal;clip-rule:nonzero;display:inline;overflow:visible;visibility:visible;isolation:auto;mix-blend-mode:normal;color-interpolation:sRGB;color-interpolation-filters:linearRGB;solid-color:#000000;solid-opacity:1;fill:#ffffff;fill-opacity:1;fill-rule:evenodd;stroke:none;stroke-width:4.31807;stroke-linecap:butt;stroke-linejoin:miter;stroke-miterlimit:4;stroke-dasharray:none;stroke-dashoffset:0;stroke-opacity:1;color-rendering:auto;image-rendering:auto;shape-rendering:auto;text-rendering:auto;enable-background:accumulate"
       d="m 128.68978,999.48177 c -9.34571,12.60783 -26.60918,19.34603 -47.17544,22.33423 -21.45726,3.1176 -46.33823,2.1913 -68.53889,0.2949 1.06332,1.5884 2.23042,3.1284 3.43158,4.6152 21.3716,1.6944 44.91786,2.3869 65.7284,-0.6367 17.35633,-2.5218 33.03962,-7.6381 43.79912,-17.1465 1.17402,-3.0571 2.13941,-6.4433 2.75523,-9.46113 z"
       id="path4808-8"
       inkscape:connector-curvature="0"
       sodipodi:nodetypes="csccscc" />
    <circle
       inkscape:export-ydpi="90"
       inkscape:export-xdpi="90"
       r="64.075058"
       cy="986.25592"
       cx="66.122314"
       id="circle4812-0"
       style="fill:#500000;fill-opacity:0;stroke:none;stroke-width:3;stroke-miterlimit:4;stroke-dasharray:none;stroke-opacity:1" />
    <path
       style="fill:#5294e2;fill-opacity:1;stroke:none;stroke-width:3;stroke-miterlimit:4;stroke-dasharray:none;stroke-opacity:1"
       d="m 82.13148,1026.0874 c -21.74774,3.0688 -43.90018,2.308 -65.72445,0.6387 14.04431,17.9105 38.45322,26.9363 60.99997,22.586 21.76014,-3.7402 40.83336,-19.6756 48.51661,-40.3503 -12.92189,9.166 -28.18857,14.7292 -43.79213,17.1256 z"
       id="path4814-1"
       inkscape:connector-curvature="0"
       sodipodi:nodetypes="ccccc" />
    <g
       id="g1"
       transform="matrix(0.87330686,0,0,0.87330686,778.9613,1621.1302)">
      <path
         style="font-variation-settings:'wght' 500;fill:#ffffff;stroke-width:0"
         d="m -799.84206,-761.65195 c 7.66416,0 9.16058,11.14984 10.35975,15.42744 7.63956,1.73519 14.83185,4.64137 20.55722,6.34406 0,-8.02108 -0.31717,-22.69256 -8.81748,-30.30489 0,0 1.00619,5.57558 -0.85448,7.96787 -1.86067,2.39229 -8.5059,3.45551 -9.83495,-4.51877 -1.32905,-7.97428 -7.97429,-9.30333 -9.30333,-15.94857 -1.32905,-6.64523 5.37323,-12.75244 5.37323,-12.75244 -7.61007,1.2723 -12.07552,4.24012 -14.67657,10.09435 -2.60105,5.85422 -0.26581,11.96143 -0.26581,15.94857 0,5.55229 -9.00294,4.05242 -9.71368,-3.7163 -0.41622,-4.54951 2.6813,-11.45869 2.6813,-11.45869 0,0 -6.11651,0 -11.57695,5.72935 12.33087,21.77149 11.79909,15.16071 19.20131,21.77149 3.43522,-1.14586 3.87238,-4.58347 6.87044,-4.58347 z"
         id="path449-1"
         sodipodi:nodetypes="sccczzzczzzcccs" />
      <path
         style="font-variation-settings:'wght' 500;fill:#ffffff;stroke-width:0"
         d="m -750.99346,-733.34349 c 0.6115,-5.49223 -5.07424,-7.22633 -4.71033,-11.84446 0.3639,-4.61811 4.5803,-6.87521 4.5803,-6.87521 -5.72537,0 -8.01551,2.29174 -9.16059,4.58348 -1.14507,2.29173 -1.88367,6.24971 -2.62648,8.87202 z"
         id="path449-1-6"
         sodipodi:nodetypes="czczcc" />
    </g>
    <path
       style="font-variation-settings:'wght' 500;fill:#ffffff;stroke-width:0"
       d="m 25.900003,971.24116 3.738669,-9.91019 C 23,968.35106 22,947.33648 22,947.33648 c -6.192049,7.75696 1.033778,25.22967 -4,25.38285 -4,0.12171 -3.357313,-3.25072 -3,-5.36896 0.506404,-3.00208 -2,-4.57544 -2,-4.57544 0,0 1,1.91343 0,3.57475 -1.542575,2.5627 -3,5.13934 -3,10.00694 0,8.00556 4.114648,12.78386 5.423518,13.13621 15.064265,4.05539 0.710755,-11.24523 8.684996,-11.26505 1.564176,-2.74859 -0.156986,-5.23774 1.791489,-6.98662 z"
       id="path449-1-3"
       sodipodi:nodetypes="cccsscssscc" />
    <g
       id="g2"
       transform="translate(0)">
      <path
         style="color:#000000;font-style:normal;font-variant:normal;font-weight:normal;font-stretch:normal;font-size:medium;line-height:normal;font-family:sans-serif;text-indent:0;text-align:start;text-decoration:none;text-decoration-line:none;text-decoration-style:solid;text-decoration-color:#000000;letter-spacing:normal;word-spacing:normal;text-transform:none;writing-mode:lr-tb;direction:ltr;baseline-shift:baseline;text-anchor:start;white-space:normal;clip-rule:nonzero;display:inline;overflow:visible;visibility:visible;isolation:auto;mix-blend-mode:normal;color-interpolation:sRGB;color-interpolation-filters:linearRGB;solid-color:#000000;solid-opacity:1;fill:#4c5263;fill-opacity:1;fill-rule:evenodd;stroke:none;stroke-width:4.31807;stroke-linecap:butt;stroke-linejoin:miter;stroke-miterlimit:4;stroke-dasharray:none;stroke-dashoffset:0;stroke-opacity:1;color-rendering:auto;image-rendering:auto;shape-rendering:auto;text-rendering:auto;enable-background:accumulate"
         d="m 43.04725,918.33097 c -9.63078,31.4588 -23.86733,61.39685 -40.00001,90.00003 l -1,2 1.54157,0.7944 c 1.35333,0.6283 3.13495,1.0508 5.54687,1.5332 2.41193,0.4824 5.37886,0.9632 8.71289,1.4395 6.66808,0.9525 14.7982,1.8836 22.68555,2.7031 15.77471,1.6389 30.58203,2.834 30.58203,2.834 l 2.51953,0.2031 -0.19335,-2.5215 c 0,0 -3.90695,-50.82989 -4.63672,-59.18162 l -0.0391,-0.45117 -0.21875,-0.39844 c -4.62375,-7.38388 -22.58402,-38.08494 -25.50051,-38.9546 z m 1.99999,9 c 6.82802,12.01186 12.72677,18.82237 20,32 0.72571,8.39811 3.58298,51.75883 3.89118,55.76513 -2.15756,-0.1763 -13.54785,-1.0926 -27.95899,-2.5898 -7.85641,-0.8163 -15.94849,-1.743 -22.51953,-2.6817 -3.28551,-0.4693 -6.19216,-0.9435 -8.47656,-1.4004 -1.12711,-0.2254 -1.15187,-0.8808 -1.9361,-1.0932 11.78263,-20.81856 30.49883,-53.46775 37,-80.00003 z"
         id="path4806-5"
         inkscape:connector-curvature="0"
         sodipodi:nodetypes="ccccsssccccccccccssscc" />
      <path
         style="color:#000000;font-style:normal;font-variant:normal;font-weight:normal;font-stretch:normal;font-size:medium;line-height:normal;font-family:sans-serif;text-indent:0;text-align:start;text-decoration:none;text-decoration-line:none;text-decoration-style:solid;text-decoration-color:#000000;letter-spacing:normal;word-spacing:normal;text-transform:none;writing-mode:lr-tb;direction:ltr;baseline-shift:baseline;text-anchor:start;white-space:normal;clip-rule:nonzero;display:inline;overflow:visible;visibility:visible;isolation:auto;mix-blend-mode:normal;color-interpolation:sRGB;color-interpolation-filters:linearRGB;solid-color:#000000;solid-opacity:1;fill:#4c5263;fill-opacity:1;fill-rule:evenodd;stroke:none;stroke-width:4.31807;stroke-linecap:butt;stroke-linejoin:miter;stroke-miterlimit:4;stroke-dasharray:none;stroke-dashoffset:0;stroke-opacity:1;color-rendering:auto;image-rendering:auto;shape-rendering:auto;text-rendering:auto;enable-background:accumulate"
         d="m 77.04724,965.33097 -1.02874,4.49952 c 10.04859,6.72143 19.62481,12.58987 25.84375,18.83008 6.21893,6.24022 9.13316,12.38123 6.76953,20.98043 l -1.10156,4.0137 3.91601,-1.4101 c 12.23548,-4.4024 18.0492,-12.93325 21.60101,-19.91363 l 1,-2 -2,-2 c -5.96313,-6.27973 -15.17389,-10.44201 -25.86077,-14.23095 -10.68689,-3.78893 -22.32622,-7.12618 -29.13923,-8.76905 z m 11.9361,7.9507 c 4.9734,1.36682 10.39142,2.98537 15.75977,4.88867 9.74062,3.45345 18.96263,7.89396 24.17382,12.69336 -2.97972,5.49491 -7.52402,11.8326 -15.36328,15.7715 0.8405,-8.22189 -2.78232,-15.15099 -8.63281,-21.0215 -4.31849,-4.33327 -9.95794,-8.32505 -15.9375,-12.33203 z"
         id="path4810-6"
         inkscape:connector-curvature="0"
         sodipodi:nodetypes="ccsccccccsccsccsc" />
      <path
         inkscape:export-ydpi="90"
         inkscape:export-xdpi="90"
         sodipodi:nodetypes="cccc"
         inkscape:connector-curvature="0"
         id="path4816-6"
         d="m 70.04724,961.33097 c 9.63852,19.85542 9.64724,39.49913 4,54.00003 7.95178,0.048 20.92769,0.9397 35,-6 -11.56629,-26.40966 -39.00001,-48.00003 -39,-48.00003 z"
         style="fill:#ffffff;fill-opacity:1;fill-rule:evenodd;stroke:none;stroke-width:1px;stroke-linecap:butt;stroke-linejoin:miter;stroke-opacity:1" />
      <path
         style="fill:#ffffff;fill-opacity:1;fill-rule:evenodd;stroke:none;stroke-width:4.31807;stroke-linecap:butt;stroke-linejoin:miter;stroke-miterlimit:4;stroke-dasharray:none;stroke-opacity:1"
         d="m 45.04724,927.33097 c -6.50145,26.53211 -25.21755,59.18176 -37,80.00003 l 10.41462,2.4956 c 6.57103,0.9387 14.66311,1.8654 22.51953,2.6816 14.41013,1.4972 25.90684,2.6463 28.06585,2.8228 -0.3084,-4.0089 -3.27414,-47.59989 -4,-56.00003 -7.27323,-13.17763 -13.17198,-19.98814 -20,-32 z"
         id="path4819-6"
         inkscape:connector-curvature="0"
         sodipodi:nodetypes="cccsccc" />
      <path
         style="fill:#ffffff;fill-opacity:1;fill-rule:evenodd;stroke:none;stroke-width:4.31807;stroke-linecap:butt;stroke-linejoin:miter;stroke-miterlimit:4;stroke-dasharray:none;stroke-opacity:1"
         d="m 89.04724,973.33097 c 5.9813,4.00802 11.68042,7.66564 16,12 5.85007,5.8701 8.8398,13.77887 8,22.00003 7.83834,-3.9385 13.02025,-10.50555 16,-16.00003 -5.21142,-4.79902 -14.26004,-9.54678 -24,-13 -5.37059,-1.90409 -11.02494,-3.63283 -16,-5 z"
         id="path4821-7"
         inkscape:connector-curvature="0"
         sodipodi:nodetypes="csccsc" />
    </g>
  </g>
</svg>
