<?xml version="1.0" encoding="UTF-8" standalone="no"?>
<!-- Created with Inkscape (http://www.inkscape.org/) -->

<svg
   width="455.1568"
   height="455.37839"
   viewBox="0 0 120.98502 120.95988"
   id="svg12101"
   version="1.1"
   inkscape:version="1.2.2 (b0a8486541, 2022-12-01)"
   sodipodi:docname="off-topic-icon-2.svg"
   inkscape:export-filename="off-topic-2.png"
   inkscape:export-xdpi="107.98916"
   inkscape:export-ydpi="107.98916"
   xmlns:inkscape="http://www.inkscape.org/namespaces/inkscape"
   xmlns:sodipodi="http://sodipodi.sourceforge.net/DTD/sodipodi-0.dtd"
   xmlns="http://www.w3.org/2000/svg"
   xmlns:svg="http://www.w3.org/2000/svg"
   xmlns:rdf="http://www.w3.org/1999/02/22-rdf-syntax-ns#"
   xmlns:cc="http://creativecommons.org/ns#"
   xmlns:dc="http://purl.org/dc/elements/1.1/">
  <defs
     id="defs12103" />
  <sodipodi:namedview
     id="base"
     pagecolor="#ffffff"
     bordercolor="#666666"
     borderopacity="1.0"
     inkscape:pageopacity="0.0"
     inkscape:pageshadow="2"
     inkscape:zoom="1"
     inkscape:cx="223.5"
     inkscape:cy="270.5"
     inkscape:document-units="px"
     inkscape:current-layer="layer1"
     showgrid="true"
     units="px"
     inkscape:window-width="1920"
     inkscape:window-height="999"
     inkscape:window-x="1050"
     inkscape:window-y="727"
     inkscape:window-maximized="1"
     inkscape:snap-bbox="true"
     inkscape:bbox-nodes="true"
     inkscape:snap-bbox-edge-midpoints="true"
     inkscape:object-paths="true"
     inkscape:object-nodes="true"
     inkscape:snap-intersection-paths="true"
     inkscape:snap-smooth-nodes="true"
     inkscape:snap-midpoints="true"
     inkscape:showpageshadow="2"
     inkscape:pagecheckerboard="0"
     inkscape:deskcolor="#d1d1d1"
     inkscape:lockguides="false"
     showguides="true">
    <inkscape:grid
       type="xygrid"
       id="grid4163"
       originx="-7.0830539"
       originy="-7.4569637" />
  </sodipodi:namedview>
  <metadata
     id="metadata12106">
    <rdf:RDF>
      <cc:Work
         rdf:about="">
        <dc:format>image/svg+xml</dc:format>
        <dc:type
           rdf:resource="http://purl.org/dc/dcmitype/StillImage" />
      </cc:Work>
    </rdf:RDF>
  </metadata>
  <g
     inkscape:label="Ebene 1"
     inkscape:groupmode="layer"
     id="layer1"
     transform="translate(-7.0830536,-923.82432)">
    <circle
       style="fill:#4c5263;fill-opacity:1;stroke:none;stroke-width:2.83226;stroke-miterlimit:4;stroke-dasharray:none;stroke-opacity:1"
       id="circle4804-0"
       cx="67.5047"
       cy="984.34045"
       r="60.421638"
       inkscape:export-xdpi="90"
       inkscape:export-ydpi="90" />
    <path
       style="color:#000000;font-style:normal;font-variant:normal;font-weight:normal;font-stretch:normal;font-size:medium;line-height:normal;font-family:sans-serif;text-indent:0;text-align:start;text-decoration:none;text-decoration-line:none;text-decoration-style:solid;text-decoration-color:#000000;letter-spacing:normal;word-spacing:normal;text-transform:none;writing-mode:lr-tb;direction:ltr;baseline-shift:baseline;text-anchor:start;white-space:normal;clip-rule:nonzero;display:inline;overflow:visible;visibility:visible;isolation:auto;mix-blend-mode:normal;color-interpolation:sRGB;color-interpolation-filters:linearRGB;solid-color:#000000;solid-opacity:1;fill:#ffffff;fill-opacity:1;fill-rule:evenodd;stroke:none;stroke-width:4.07664;stroke-linecap:butt;stroke-linejoin:miter;stroke-miterlimit:4;stroke-dasharray:none;stroke-dashoffset:0;stroke-opacity:1;color-rendering:auto;image-rendering:auto;shape-rendering:auto;text-rendering:auto;enable-background:accumulate"
       d="m 126.64479,996.75597 c -8.82317,11.90293 -25.12141,18.26433 -44.53778,21.08543 -20.25754,2.9433 -43.74737,2.0688 -64.70676,0.2785 1.00387,1.4995 2.10572,2.9534 3.23972,4.3572 20.17667,1.5996 42.40642,2.2534 62.05341,-0.6012 16.3859,-2.3807 31.19231,-7.211 41.35023,-16.1878 1.10838,-2.8861 2.01979,-6.08301 2.60118,-8.93213 z"
       id="path4808-8"
       inkscape:connector-curvature="0"
       sodipodi:nodetypes="csccscc" />
    <circle
       inkscape:export-ydpi="90"
       inkscape:export-xdpi="90"
       r="60.492508"
       cy="984.26959"
       cx="67.575562"
       id="circle4812-0"
       style="fill:#500000;fill-opacity:0;stroke:none;stroke-width:2.83226;stroke-miterlimit:4;stroke-dasharray:none;stroke-opacity:1" />
    <path
       style="fill:#5294e2;fill-opacity:1;stroke:none;stroke-width:2.83226;stroke-miterlimit:4;stroke-dasharray:none;stroke-opacity:1"
       d="m 82.68965,1021.874 c -20.53179,2.8972 -41.44565,2.1789 -62.04968,0.6031 13.25907,16.909 36.30323,25.4301 57.58935,21.3231 20.54349,-3.5311 38.5503,-18.5755 45.80396,-38.0942 -12.1994,8.6535 -26.61249,13.9057 -41.34363,16.168 z"
       id="path4814-1"
       inkscape:connector-curvature="0"
       sodipodi:nodetypes="ccccc" />
    <path
       style="font-variation-settings:'wght' 500;fill:#ffffff;fill-opacity:1;stroke:#ffffff;stroke-width:0;stroke-dasharray:none"
       d="m 21.692135,976.31019 c -9.367731,5.50315 12.644909,42.97421 22.012649,37.47091 l 37.471102,-22.01253 c 9.367763,-5.50319 4.746653,-18.98887 10.313436,-22.22192 5.566784,-3.23305 8.906848,-5.17288 10.666818,-4.70614 1.75997,0.46675 1.93983,3.34007 6.39326,0.75363 4.45342,-2.58643 1.44318,-7.14972 -2.22559,-13.39491 -3.66874,-6.24522 -6.25318,-11.45865 -10.706609,-8.87222 -4.453426,2.58644 -2.046847,4.16655 -2.513596,5.92651 -0.466749,1.75997 -3.947535,3.74528 -9.3736,6.93285 -5.426054,3.18757 -13.637712,-8.3092 -24.566782,-1.88885 z"
       id="path385"
       sodipodi:nodetypes="zzzzzzzzzzzz" />
    <path
       style="font-variation-settings:'wght' 500;fill:#4c5263;fill-opacity:1;stroke-width:3.72179;stroke-dasharray:none"
       d="m 26.972691,984.7904 c -0.01504,1.50142 0.29933,5.5412 3.640273,11.2982 3.342861,5.7559 6.765098,7.9732 8.082842,8.693 1.317622,0.72 7.582449,-7.43148 19.799359,-14.59561 12.216917,-7.16411 24.572271,-10.52883 24.625768,-11.45569 0.0535,-0.92688 -4.592738,-0.52493 -8.385283,-5.46517 -3.792544,-4.94025 -5.068237,-9.33227 -3.735485,-10.1138 1.332762,-0.78155 4.316431,1.52016 5.442608,2.84402 1.126171,1.32385 4.315537,5.79244 3.425061,6.34977 -0.890472,0.55733 -2.596932,-0.8652 -3.470339,-1.84558 -0.873408,-0.98038 -1.394438,-1.86888 -1.486315,-1.51649 -0.09187,0.35237 0.778262,2.16484 2.969336,3.86508 2.19107,1.70023 6.159101,2.35833 1.600129,-5.41604 -4.558969,-7.77438 -9.767934,-8.00338 -10.304055,-7.3905 -0.536131,0.61289 -7.582461,7.43155 -19.799376,14.59566 -12.216891,7.16412 -22.389485,8.65172 -22.404525,10.15315 z"
       id="path4109"
       sodipodi:nodetypes="zzzzzzzzzzzzzzzzz" />
    <circle
       style="fill:#ffffff;fill-opacity:1;stroke-width:2.32684"
       id="path1513-6"
       cx="-462.17523"
       cy="875.26465"
       r="3.0424125"
       transform="rotate(-30.432445)" />
    <circle
       style="fill:#ffffff;fill-opacity:1;stroke-width:2.32684"
       id="path1513-3-2"
       cx="-451.3465"
       cy="875.26465"
       r="3.0424125"
       transform="rotate(-30.432445)" />
    <circle
       style="fill:#ffffff;fill-opacity:1;stroke-width:2.32684"
       id="path1513-1-6"
       cx="-440.51773"
       cy="875.26465"
       r="3.0424125"
       transform="rotate(-30.432445)" />
  </g>
</svg>
