<?xml version="1.0" encoding="UTF-8" standalone="no"?>
<!-- Created with Inkscape (http://www.inkscape.org/) -->

<svg
   width="512"
   height="512"
   viewBox="0 0 136.09448 136"
   id="svg12101"
   version="1.1"
   inkscape:version="1.2.2 (b0a8486541, 2022-12-01)"
   sodipodi:docname="admin-icon.svg"
   inkscape:export-filename="  polls-icon.png"
   inkscape:export-xdpi="96"
   inkscape:export-ydpi="96"
   xmlns:inkscape="http://www.inkscape.org/namespaces/inkscape"
   xmlns:sodipodi="http://sodipodi.sourceforge.net/DTD/sodipodi-0.dtd"
   xmlns="http://www.w3.org/2000/svg"
   xmlns:svg="http://www.w3.org/2000/svg"
   xmlns:rdf="http://www.w3.org/1999/02/22-rdf-syntax-ns#"
   xmlns:cc="http://creativecommons.org/ns#"
   xmlns:dc="http://purl.org/dc/elements/1.1/">
  <defs
     id="defs12103">
    <inkscape:path-effect
       effect="copy_rotate"
       starting_point="0,0"
       origin="-803.05,-750"
       id="path-effect6576"
       is_visible="true"
       lpeversion="1.2"
       lpesatellites=""
       method="normal"
       num_copies="8"
       starting_angle="0"
       rotation_angle="45"
       gap="-0.01"
       copies_to_360="true"
       mirror_copies="false"
       split_items="false"
       link_styles="false" />
    <inkscape:path-effect
       effect="copy_rotate"
       starting_point="0,0"
       origin="100,100"
       id="path-effect6574"
       is_visible="true"
       lpeversion="1.2"
       lpesatellites=""
       method="normal"
       num_copies="6"
       starting_angle="0"
       rotation_angle="60"
       gap="0.13"
       copies_to_360="true"
       mirror_copies="false"
       split_items="false"
       link_styles="false" />
  </defs>
  <sodipodi:namedview
     id="base"
     pagecolor="#ffffff"
     bordercolor="#666666"
     borderopacity="1.0"
     inkscape:pageopacity="0.0"
     inkscape:pageshadow="2"
     inkscape:zoom="0.99999996"
     inkscape:cx="333.50001"
     inkscape:cy="245.50001"
     inkscape:document-units="px"
     inkscape:current-layer="layer1"
     showgrid="true"
     units="px"
     inkscape:window-width="1920"
     inkscape:window-height="999"
     inkscape:window-x="0"
     inkscape:window-y="0"
     inkscape:window-maximized="1"
     inkscape:snap-bbox="true"
     inkscape:bbox-nodes="true"
     inkscape:snap-bbox-edge-midpoints="true"
     inkscape:object-paths="true"
     inkscape:object-nodes="true"
     inkscape:snap-intersection-paths="true"
     inkscape:snap-smooth-nodes="true"
     inkscape:snap-midpoints="true"
     inkscape:showpageshadow="2"
     inkscape:pagecheckerboard="0"
     inkscape:deskcolor="#d1d1d1"
     showguides="true">
    <inkscape:grid
       type="xygrid"
       id="grid4163" />
    <sodipodi:guide
       position="67.78143,136"
       orientation="1,0"
       id="guide1288"
       inkscape:locked="false" />
    <sodipodi:guide
       position="143.53715,66.9375"
       orientation="0,-1"
       id="guide1336"
       inkscape:locked="false" />
  </sodipodi:namedview>
  <metadata
     id="metadata12106">
    <rdf:RDF>
      <cc:Work
         rdf:about="">
        <dc:format>image/svg+xml</dc:format>
        <dc:type
           rdf:resource="http://purl.org/dc/dcmitype/StillImage" />
        <dc:title />
      </cc:Work>
    </rdf:RDF>
  </metadata>
  <g
     inkscape:label="Ebene 1"
     inkscape:groupmode="layer"
     id="layer1"
     transform="translate(0,-916.36218)">
    <circle
       inkscape:export-ydpi="90"
       inkscape:export-xdpi="90"
       r="60.492508"
       cy="984.26959"
       cx="67.575562"
       id="circle4812-0"
       style="fill:#500000;fill-opacity:0;stroke:none;stroke-width:2.83226;stroke-miterlimit:4;stroke-dasharray:none;stroke-opacity:1" />
    <g
       id="g1312"
       transform="translate(871.10968,1731.8371)">
      <circle
         style="fill:#4c5263;fill-opacity:1;stroke:none;stroke-width:2.83226;stroke-miterlimit:4;stroke-dasharray:none;stroke-opacity:1"
         id="circle4804-0"
         cx="-803.32825"
         cy="-746.55646"
         r="60.421638"
         inkscape:export-xdpi="90"
         inkscape:export-ydpi="90" />
      <path
         style="color:#000000;font-style:normal;font-variant:normal;font-weight:normal;font-stretch:normal;font-size:medium;line-height:normal;font-family:sans-serif;text-indent:0;text-align:start;text-decoration:none;text-decoration-line:none;text-decoration-style:solid;text-decoration-color:#000000;letter-spacing:normal;word-spacing:normal;text-transform:none;writing-mode:lr-tb;direction:ltr;baseline-shift:baseline;text-anchor:start;white-space:normal;clip-rule:nonzero;display:inline;overflow:visible;visibility:visible;opacity:1;isolation:auto;mix-blend-mode:normal;color-interpolation:sRGB;color-interpolation-filters:linearRGB;solid-color:#000000;solid-opacity:1;fill:#ffffff;fill-opacity:1;fill-rule:evenodd;stroke:none;stroke-width:4.07664;stroke-linecap:butt;stroke-linejoin:miter;stroke-miterlimit:4;stroke-dasharray:none;stroke-dashoffset:0;stroke-opacity:1;color-rendering:auto;image-rendering:auto;shape-rendering:auto;text-rendering:auto;enable-background:accumulate"
         d="m -744.18816,-734.14093 c -8.82317,11.90294 -25.12141,18.26438 -44.53778,21.08546 -20.25754,2.94331 -43.74737,2.06878 -64.70676,0.27843 1.00387,1.49958 2.10572,2.95344 3.23972,4.3572 20.17667,1.59964 42.40642,2.25343 62.05341,-0.60112 16.3859,-2.38078 31.19231,-7.21108 41.35023,-16.1878 1.10838,-2.88616 2.01979,-6.08305 2.60118,-8.93217 z"
         id="path4808-8"
         inkscape:connector-curvature="0"
         sodipodi:nodetypes="csccscc" />
      <path
         style="fill:#5294e2;fill-opacity:1;stroke:none;stroke-width:2.83226;stroke-miterlimit:4;stroke-dasharray:none;stroke-opacity:1"
         d="m -788.1433,-709.02285 c -20.53179,2.89718 -41.44565,2.17889 -62.04968,0.60301 13.25907,16.90907 36.30323,25.43018 57.58935,21.32318 20.54349,-3.53111 38.5503,-18.57558 45.80396,-38.09428 -12.1994,8.65354 -26.61249,13.9057 -41.34363,16.16809 z"
         id="path4814-1"
         inkscape:connector-curvature="0"
         sodipodi:nodetypes="ccccc" />
    </g>
    <g
       id="g836"
       transform="matrix(0.84439371,0.84439371,-0.84439371,0.84439371,834.72564,98.985511)">
      <path
         style="font-variation-settings:'wght' 500;fill:#ffffff;fill-opacity:1;stroke:#ffffff;stroke-width:0"
         d="m 43.249363,957.18774 c 0,3.69696 0,6.46966 1.547477,8.31814 1.547476,1.84848 2.321214,1.84848 3.481822,1.84848 1.160606,0 2.708085,-2.3106 4.64243,-2.3106 1.934345,0 1.934345,2.3106 3.094952,2.3106 0,0 2.585068,0.26381 2.993672,-0.2698 0.408603,-0.53362 1.329048,-3.98714 1.329048,-9.56914 0,-5.582 -1.186254,-9.50528 -1.594858,-10.10077 -0.408603,-0.59548 -2.727862,-0.39354 -2.727862,-0.39354 -1.160607,0 -1.160607,2.3106 -3.094952,2.3106 -1.934345,0 -3.481824,-2.3106 -4.64243,-2.3106 -1.160608,0 -1.934346,0 -3.481822,1.84848 -1.547477,1.84848 -1.547477,4.62119 -1.547477,8.31815 z"
         id="path351"
         sodipodi:nodetypes="zzzzzzzzzzzzz" />
      <path
         style="font-variation-settings:'wght' 500;fill:#ffffff;fill-opacity:1;stroke:#ffffff;stroke-width:0"
         d="m 88.217985,957.18774 c 0,-3.69696 0,-6.46967 -1.54748,-8.31815 -1.547475,-1.84848 -2.321214,-1.84848 -3.481822,-1.84848 -1.160606,0 -2.708085,2.3106 -4.642426,2.3106 -1.934346,0 -1.934346,-2.3106 -3.094952,-2.3106 0,0 -3.062505,-0.20194 -2.619495,0.39354 0.443009,0.59549 1.594857,5.31619 1.594857,10.10077 0,4.78458 -0.886038,9.03552 -1.329048,9.56914 -0.443009,0.53361 2.353686,0.2698 2.353686,0.2698 1.160606,0 1.160606,-2.3106 3.094952,-2.3106 1.934341,0 3.48182,2.3106 4.642426,2.3106 1.160608,0 1.934347,0 3.481822,-1.84848 1.54748,-1.84848 1.54748,-4.62118 1.54748,-8.31814 z"
         id="path351-3"
         sodipodi:nodetypes="zzzzzzzzzzzzz" />
      <path
         style="font-variation-settings:'wght' 500;fill:#ffffff;stroke:#ffffff;stroke-width:0"
         d="m 62.19943,948.21208 h 7.974286 c 0.531619,0 1.594857,5.84781 1.594857,9.30334 0,3.45553 -0.531618,8.77171 -1.594857,8.77171 h -7.442667 c -1.329048,0 0.265809,-1.32904 0.26581,-8.77171 10e-7,-7.44267 -1.594858,-9.30334 -0.797429,-9.30334 z"
         id="path760"
         sodipodi:nodetypes="zzzzzzz" />
      <path
         style="font-variation-settings:'wght' 500;fill:#ffffff;stroke:#ffffff;stroke-width:0"
         d="m 64.325907,966.02132 4.252952,0.26581 c 0,0 0.521651,11.96088 0.531619,19.13829 -0.304747,3.40363 0.26581,24.72028 -0.531619,26.31518 -0.797429,1.5948 -3.455524,1.5948 -4.252952,0 -0.797429,-1.5949 -0.531441,-19.48235 -0.531619,-26.31518 0.01,-7.17741 0.531619,-19.4041 0.531619,-19.4041 z"
         id="path782"
         sodipodi:nodetypes="ccczzcc" />
    </g>
  </g>
</svg>
