<?xml version="1.0" encoding="UTF-8" standalone="no"?>
<!-- Created with Inkscape (http://www.inkscape.org/) -->

<svg
   width="512"
   height="512"
   viewBox="0 0 136.09448 136"
   id="svg12101"
   version="1.1"
   inkscape:version="1.2.2 (b0a8486541, 2022-12-01)"
   sodipodi:docname="off-topic-icon-2.svg"
   inkscape:export-filename="support-icon.png"
   inkscape:export-xdpi="96"
   inkscape:export-ydpi="96"
   xmlns:inkscape="http://www.inkscape.org/namespaces/inkscape"
   xmlns:sodipodi="http://sodipodi.sourceforge.net/DTD/sodipodi-0.dtd"
   xmlns="http://www.w3.org/2000/svg"
   xmlns:svg="http://www.w3.org/2000/svg"
   xmlns:rdf="http://www.w3.org/1999/02/22-rdf-syntax-ns#"
   xmlns:cc="http://creativecommons.org/ns#"
   xmlns:dc="http://purl.org/dc/elements/1.1/">
  <defs
     id="defs12103" />
  <sodipodi:namedview
     id="base"
     pagecolor="#ffffff"
     bordercolor="#666666"
     borderopacity="1.0"
     inkscape:pageopacity="0.0"
     inkscape:pageshadow="2"
     inkscape:zoom="1"
     inkscape:cx="193"
     inkscape:cy="191.5"
     inkscape:document-units="px"
     inkscape:current-layer="layer1"
     showgrid="true"
     units="px"
     inkscape:window-width="1920"
     inkscape:window-height="999"
     inkscape:window-x="0"
     inkscape:window-y="0"
     inkscape:window-maximized="1"
     inkscape:snap-bbox="true"
     inkscape:bbox-nodes="true"
     inkscape:snap-bbox-edge-midpoints="true"
     inkscape:object-paths="true"
     inkscape:object-nodes="true"
     inkscape:snap-intersection-paths="true"
     inkscape:snap-smooth-nodes="true"
     inkscape:snap-midpoints="true"
     inkscape:showpageshadow="2"
     inkscape:pagecheckerboard="0"
     inkscape:deskcolor="#d1d1d1"
     inkscape:lockguides="false"
     showguides="true">
    <inkscape:grid
       type="xygrid"
       id="grid4163" />
  </sodipodi:namedview>
  <metadata
     id="metadata12106">
    <rdf:RDF>
      <cc:Work
         rdf:about="">
        <dc:format>image/svg+xml</dc:format>
        <dc:type
           rdf:resource="http://purl.org/dc/dcmitype/StillImage" />
      </cc:Work>
    </rdf:RDF>
  </metadata>
  <g
     inkscape:label="Ebene 1"
     inkscape:groupmode="layer"
     id="layer1"
     transform="translate(0,-916.36218)">
    <circle
       style="fill:#4c5263;fill-opacity:1;stroke:none;stroke-width:2.83226;stroke-miterlimit:4;stroke-dasharray:none;stroke-opacity:1"
       id="circle4804-0"
       cx="67.5047"
       cy="984.34045"
       r="60.421638"
       inkscape:export-xdpi="90"
       inkscape:export-ydpi="90" />
    <path
       style="color:#000000;font-style:normal;font-variant:normal;font-weight:normal;font-stretch:normal;font-size:medium;line-height:normal;font-family:sans-serif;text-indent:0;text-align:start;text-decoration:none;text-decoration-line:none;text-decoration-style:solid;text-decoration-color:#000000;letter-spacing:normal;word-spacing:normal;text-transform:none;writing-mode:lr-tb;direction:ltr;baseline-shift:baseline;text-anchor:start;white-space:normal;clip-rule:nonzero;display:inline;overflow:visible;visibility:visible;isolation:auto;mix-blend-mode:normal;color-interpolation:sRGB;color-interpolation-filters:linearRGB;solid-color:#000000;solid-opacity:1;fill:#ffffff;fill-opacity:1;fill-rule:evenodd;stroke:none;stroke-width:4.07664;stroke-linecap:butt;stroke-linejoin:miter;stroke-miterlimit:4;stroke-dasharray:none;stroke-dashoffset:0;stroke-opacity:1;color-rendering:auto;image-rendering:auto;shape-rendering:auto;text-rendering:auto;enable-background:accumulate"
       d="m 126.64479,996.75597 c -8.82317,11.90293 -25.12141,18.26433 -44.53778,21.08543 -20.25754,2.9433 -43.74737,2.0688 -64.70676,0.2785 1.00387,1.4995 2.10572,2.9534 3.23972,4.3572 20.17667,1.5996 42.40642,2.2534 62.05341,-0.6012 16.3859,-2.3807 31.19231,-7.211 41.35023,-16.1878 1.10838,-2.8861 2.01979,-6.08301 2.60118,-8.93213 z"
       id="path4808-8"
       inkscape:connector-curvature="0"
       sodipodi:nodetypes="csccscc" />
    <circle
       inkscape:export-ydpi="90"
       inkscape:export-xdpi="90"
       r="60.492508"
       cy="984.26959"
       cx="67.575562"
       id="circle4812-0"
       style="fill:#500000;fill-opacity:0;stroke:none;stroke-width:2.83226;stroke-miterlimit:4;stroke-dasharray:none;stroke-opacity:1" />
    <path
       style="fill:#5294e2;fill-opacity:1;stroke:none;stroke-width:2.83226;stroke-miterlimit:4;stroke-dasharray:none;stroke-opacity:1"
       d="m 82.68965,1021.874 c -20.53179,2.8972 -41.44565,2.1789 -62.04968,0.6031 13.25907,16.909 36.30323,25.4301 57.58935,21.3231 20.54349,-3.5311 38.5503,-18.5755 45.80396,-38.0942 -12.1994,8.6535 -26.61249,13.9057 -41.34363,16.168 z"
       id="path4814-1"
       inkscape:connector-curvature="0"
       sodipodi:nodetypes="ccccc" />
    <path
       style="font-variation-settings:'wght' 500;fill:#4c5263;stroke:#ffffff;stroke-width:3.6024;stroke-dasharray:none"
       d="m 23.811371,970.74401 c -10.296389,3.28333 2.836896,44.46879 13.133283,41.18529 l 41.185555,-13.13311 c 10.296388,-3.28333 6.46586,-15.29572 15.046184,-18.03183 8.580317,-2.7361 9.674737,0.69602 16.539017,-1.49285 6.86428,-2.18888 1.79046,-6.24264 -0.39842,-13.10689 -2.18889,-6.86427 -0.34219,-13.09823 -7.26267,-10.91802 -6.92049,2.18019 -5.769816,5.62101 -14.350138,8.35711 -8.580325,2.73609 -10.694804,-9.82356 -22.707258,-5.99302 z"
       id="path385"
       sodipodi:nodetypes="zzzzzzzzzz" />
    <path
       style="font-variation-settings:'wght' 500;fill:#ffffff;fill-opacity:1;stroke-width:3.84188;stroke-dasharray:none"
       d="m 26.10062,980.60699 c -1.246546,2.41375 -1.389026,8.28978 -0.158695,12.14805 1.230332,3.85828 4.748129,8.56706 7.161873,9.81356 2.413743,1.2466 15.239201,-6.92749 23.208253,-9.41683 7.969068,-2.48928 25.457669,-4.89197 26.205594,-6.34022 0.747924,-1.44826 -3.040595,-1.38613 -5.69869,-8.8288 -2.658096,-7.44266 -1.329048,-9.03752 -0.797429,-9.30333 0.531619,-0.26581 1.125507,-0.25114 2.923905,1.59486 1.798404,1.84604 5.497571,8.66484 3.863502,3.54045 -1.634079,-5.12441 -5.458359,-8.85664 -7.584836,-8.85664 -2.126476,0 -16.482623,7.28145 -24.748027,9.89227 -8.265419,2.61076 -23.12891,3.34288 -24.37545,5.75663 z"
       id="path4109"
       sodipodi:nodetypes="zzzzzzzzzzzz" />
    <g
       id="g6357"
       transform="matrix(1.2147924,-0.38737468,0.38737468,1.2147924,-387.5309,-190.65601)">
      <circle
         style="fill:#4c5263;fill-opacity:1;stroke-width:1.88377"
         id="path1513-6"
         cx="40.29937"
         cy="982.76733"
         r="2.4630837" />
      <circle
         style="fill:#4c5263;fill-opacity:1;stroke-width:1.88377"
         id="path1513-3-2"
         cx="49.066116"
         cy="982.76733"
         r="2.4630837" />
      <circle
         style="fill:#4c5263;fill-opacity:1;stroke-width:1.88377"
         id="path1513-1-6"
         cx="57.832905"
         cy="982.76733"
         r="2.4630837" />
    </g>
  </g>
</svg>
